Coordinates
version=1
nRows=19
nColumns=24
inDegrees=yes

Units are S.I. units (second, meters, Newtons, ...)
Angles are in degrees.

endheader
time	pelvis_tilt	pelvis_list	pelvis_rotation	pelvis_tx	pelvis_ty	pelvis_tz	hip_flexion_r	hip_adduction_r	hip_rotation_r	knee_angle_r	ankle_angle_r	subtalar_angle_r	mtp_angle_r	hip_flexion_l	hip_adduction_l	hip_rotation_l	knee_angle_l	ankle_angle_l	subtalar_angle_l	mtp_angle_l	lumbar_extension	lumbar_bending	lumbar_rotation
      3.12000000	      1.16380791	      2.45377875	      5.87786577	     -1.59304274	      0.92167878	      0.19802188	     26.64785197	     -1.17571735	     -7.16508691	    -13.91980213	     10.30479421	     -5.13931382	      0.00000000	    -15.14641729	      6.73072819	      7.29296529	    -19.56222704	     23.77359743	     -5.93022331	      0.00000000	    -13.36507957	     -3.28835556	    -19.29766733
      3.12500000	      1.14665824	      2.24463591	      5.92161763	     -1.58490848	      0.92090302	      0.19837170	     26.69882804	     -0.84165580	     -6.84643067	    -14.70047555	      9.50445386	     -5.98127848	      0.00000000	    -15.01362748	      6.35765279	      6.72608721	    -20.67850227	     23.57580318	     -5.08624312	      0.00000000	    -13.18662448	     -3.02821142	    -19.24938658
      3.13000000	      1.06936388	      2.02045601	      5.82960442	     -1.57679355	      0.92006080	      0.19901886	     26.84296499	     -0.42186387	     -6.29195444	    -15.51474572	      8.55412498	     -6.91442532	      0.00000000	    -14.73406891	      5.96492928	      5.82402491	    -21.91247118	     23.36236875	     -4.03381668	      0.00000000	    -12.93854431	     -2.79982326	    -19.01199084
      3.13500000	      0.98077524	      1.78980199	      5.71515217	     -1.56874533	      0.91927997	      0.19972174	     27.00471661	      0.02695056	     -5.59334326	    -16.33956909	      7.48772930	     -7.97670432	      0.00000000	    -14.39380833	      5.56377596	      4.95764425	    -23.21488929	     23.02040538	     -3.05393344	      0.00000000	    -12.68838599	     -2.56932524	    -18.75409327
      3.14000000	      0.86432180	      1.44407943	      5.66900508	     -1.56062201	      0.91855860	      0.20031787	     27.20991904	      0.52902600	     -5.16776540	    -17.20775453	      6.49572202	     -8.77941431	      0.00000000	    -13.94461247	      5.00670417	      4.08630738	    -24.63941965	     22.63820445	     -2.01742248	      0.00000000	    -12.38186534	     -2.18772932	    -18.53943251
      3.14500000	      0.73609794	      1.14608773	      5.50631279	     -1.55263591	      0.91789566	      0.20114399	     27.44986533	      1.06316831	     -4.43476516	    -18.10068850	      5.38195486	     -9.77641431	      0.00000000	    -13.44069147	      4.51086926	      3.17239984	    -26.11420474	     22.07984474	     -1.02881089	      0.00000000	    -12.09154385	     -1.89126038	    -18.24914251
      3.15000000	      0.60047101	      0.77883405	      5.38678270	     -1.54461380	      0.91729196	      0.20190209	     27.71026777	      1.63124333	     -3.86106977	    -19.03740014	      4.39886334	    -10.60887960	      0.00000000	    -12.85808191	      3.91341619	      2.28440872	    -27.69710374	     21.43269535	     -0.04463806	      0.00000000	    -11.78136107	     -1.50124587	    -17.97718060
      3.15500000	      0.45412418	      0.39070025	      5.25024738	     -1.53658970	      0.91673103	      0.20269152	     27.98693855	      2.23415803	     -3.25095387	    -19.99754349	      3.48308610	    -11.45228080	      0.00000000	    -12.21202210	      3.28562313	      1.42572459	    -29.35387527	     20.63794676	      0.86549170	      0.00000000	    -11.45668305	     -1.09029254	    -17.67866554
      3.16000000	      0.31414916	     -0.01629511	      5.10977361	     -1.52859192	      0.91621284	      0.20347848	     28.26730716	      2.85605941	     -2.67805888	    -20.99047289	      2.68421754	    -12.23316764	      0.00000000	    -11.51799184	      2.62595444	      0.61669037	    -31.08809861	     19.72578749	      1.72478224	      0.00000000	    -11.14692800	     -0.64990884	    -17.39318812
      3.16500000	      0.17385478	     -0.42758489	      4.96893501	     -1.52058314	      0.91572466	      0.20428747	     28.53337396	      3.49292057	     -2.10023860	    -21.97598228	      2.01811423	    -13.02592145	      0.00000000	    -10.77526925	      1.94945395	     -0.13949357	    -32.88593408	     18.66275499	      2.49189192	      0.00000000	    -10.83761780	     -0.20878940	    -17.09432752
      3.17000000	      0.07339462	     -0.87930814	      4.83613724	     -1.51256665	      0.91528844	      0.20502075	     28.75094555	      4.15043398	     -1.66556470	    -22.96299098	      1.57083557	    -13.64051443	      0.00000000	    -10.02719479	      1.22187636	     -0.82573016	    -34.74684693	     17.51294620	      3.18730734	      0.00000000	    -10.57643722	      0.30093274	    -16.79854644
      3.17500000	     -0.04735662	     -1.29455509	      4.68476364	     -1.50461051	      0.91486816	      0.20586285	     28.95191105	      4.80856601	     -1.13433551	    -23.89035052	      1.18488731	    -14.37932099	      0.00000000	     -9.21476877	      0.52846321	     -1.44797822	    -36.64665717	     16.19666776	      3.76120841	      0.00000000	    -10.30961817	      0.74691470	    -16.52879563
      3.18000000	     -0.15444201	     -1.68964575	      4.53442787	     -1.49667642	      0.91449520	      0.20671465	     29.10120139	      5.45106416	     -0.64819364	    -24.76612154	      0.97858127	    -15.06309932	      0.00000000	     -8.37956884	     -0.14956822	     -2.00198228	    -38.57361523	     14.75851321	      4.22976400	      0.00000000	    -10.06823381	      1.16835270	    -16.28350135
      3.18500000	     -0.23675773	     -2.11448832	      4.38397896	     -1.48875748	      0.91415693	      0.20752566	     29.18774012	      6.11542369	     -0.26093611	    -25.58275521	      0.97245018	    -15.61816293	      0.00000000	     -7.53489262	     -0.85417730	     -2.48340863	    -40.52435790	     13.26139659	      4.55920304	      0.00000000	     -9.86370581	      1.63625379	    -16.02086947
      3.19000000	     -0.30432203	     -2.54782287	      4.22688189	     -1.48090326	      0.91386586	      0.20831619	     29.21759547	      6.78919266	      0.08060436	    -26.32856656	      1.10535791	    -16.08910784	      0.00000000	     -6.67213849	     -1.55329766	     -2.88195055	    -42.48440142	     11.70449425	      4.71892074	      0.00000000	     -9.69447832	      2.11974732	    -15.73865563
      3.19500000	     -0.38273482	     -2.95134933	      4.05887798	     -1.47308290	      0.91359706	      0.20916875	     29.20369624	      7.44799170	      0.41278254	    -26.98553852	      1.36347765	    -16.57285716	      0.00000000	     -5.76923798	     -2.22471290	     -3.25563662	    -44.43970173	     10.09531235	      4.75075632	      0.00000000	     -9.52438990	      2.55720616	    -15.49461604
      3.20000000	     -0.45432994	     -3.36168405	      3.88073974	     -1.46534321	      0.91337536	      0.20999446	     29.13977709	      8.11125825	      0.70896033	    -27.56565633	      1.71396395	    -16.98098322	      0.00000000	     -4.84384552	     -2.88431988	     -3.56653654	    -46.38626614	      8.47513034	      4.59295727	      0.00000000	     -9.38187775	      3.00808937	    -15.22639854
      3.20500000	     -0.49975952	     -3.77037924	      3.69532663	     -1.45769784	      0.91325186	      0.21077742	     29.00499598	      8.76468446	      0.94731310	    -28.06479360	      2.13134614	    -17.32012409	      0.00000000	     -3.91941440	     -3.52118808	     -3.81879411	    -48.30979669	      6.84780420	      4.23343355	      0.00000000	     -9.29609515	      3.46801211	    -14.91888988
      3.21000000	     -0.52852677	     -4.17183024	      3.50981412	     -1.45004810	      0.91320383	      0.21156329	     28.79158483	      9.40962476	      1.16027361	    -28.46556625	      2.64717590	    -17.64116727	      0.00000000	     -2.99745179	     -4.15008577	     -4.06901915	    -50.19328606	      5.24328461	      3.66864498	      0.00000000	     -9.22857266	      3.91143994	    -14.63105383
